<svg xmlns="http://www.w3.org/2000/svg" viewBox="0 0 120 150" fill="none">
    <!-- Strathmore shield -->
    <path d="M60 4 L112 25 V82 C112 112 60 146 60 146 C60 146 8 112 8 82 V25 L60 4 Z" fill="#0033A0"/>
    <path d="M60 4 L8 25 V82 C8 112 60 146 60 146 V4 Z" fill="#0033A0"/>
    <path d="M60 4 L112 25 V82 C112 112 60 146 60 146 V4 Z" fill="#FFCC00"/>
    <path d="M38 4 L82 4 L82 141 C76 143 70 145 60 145 C50 145 44 143 38 141 Z" fill="#CE1126"/>
    <!-- Shield outline -->
    <path d="M60 4 L112 25 V82 C112 112 60 146 60 146 C60 146 8 112 8 82 V25 L60 4 Z" stroke="#FFFFFF" stroke-width="3"/>
    <!-- Inner vertical dividers -->
    <path d="M38 4 L38 141" stroke="#FFFFFF" stroke-width="2"/>
    <path d="M82 4 L82 141" stroke="#FFFFFF" stroke-width="2"/>
    <!-- Stylised "S" scroll in centre -->
    <path d="M68 55 C68 48 62 44 55 44 C48 44 44 49 44 54 C44 60 50 63 58 66 C66 69 72 74 72 83 C72 94 63 101 52 101 C42 101 35 94 35 85"
          stroke="#FFFFFF" stroke-width="6" stroke-linecap="round" fill="none"/>
</svg>
